<svg version="1.1" id="closeicon" xmlns="http://www.w3.org/2000/svg" x="0" y="0" viewBox="0 0 24 24" xml:space="preserve"><style>.st1{fill:#828282}</style><path id="closecircle" d="M12 23.3c-3 0-5.9-1.2-8-3.3-2.1-2.1-3.3-5-3.3-8S1.9 6.1 4 4C6.1 1.9 9 .7 12 .7s5.9 1.2 8 3.3c2.1 2.1 3.3 5 3.3 8s-1.2 5.9-3.3 8c-2.1 2.1-5 3.3-8 3.3z" fill="none" stroke="#828282" stroke-width="1.25" stroke-miterlimit="10"/><path id="closeline2" class="st1" d="M17.8 6.2c.1.1.1.2.2.2v.4c0 .1 0 .2-.1.3 0 .1-.1.2-.2.2L7.3 17.8c-.2.1-.4.2-.5.2-.2 0-.4-.1-.5-.2-.2-.2-.3-.4-.3-.6 0-.2.1-.4.2-.5L16.7 6.2c.1-.1.2-.1.2-.2h.3s.2 0 .3.1c.1 0 .2.1.3.1z"/><path id="closeline1" class="st1" d="M6.2 6.2c0 .1-.1.2-.1.3-.1.1-.1.2-.1.3 0 0 0 .1.1.2 0 .1.1.2.2.2l10.5 10.5c.1.1.3.2.5.2s.4-.1.5-.2.2-.3.2-.5-.1-.4-.2-.5L7.3 6.2c-.1 0-.2-.1-.3-.1-.1-.1-.2-.1-.2-.1-.1 0-.2 0-.3.1-.1 0-.2.1-.3.1z"/></svg>