<?xml version="1.0" encoding="utf-8"?>
<!-- Generator: Adobe Illustrator 22.1.0, SVG Export Plug-In . SVG Version: 6.00 Build 0)  -->
<svg version="1.1" id="closeicon" xmlns="http://www.w3.org/2000/svg" xmlns:xlink="http://www.w3.org/1999/xlink" x="0px" y="0px"
	 viewBox="0 0 24 24" style="enable-background:new 0 0 24 24;" xml:space="preserve">
<style type="text/css">
	.st0{fill:none;stroke:#828282;stroke-width:1.25;stroke-miterlimit:10;}
	.st1{fill:#828282;}
</style>
<path id="closecircle" class="st0" d="M12,23.3c-3,0-5.9-1.2-8-3.3c-2.1-2.1-3.3-5-3.3-8S1.9,6.1,4,4c2.1-2.1,5-3.3,8-3.3
	c3,0,5.9,1.2,8,3.3c2.1,2.1,3.3,5,3.3,8c0,3-1.2,5.9-3.3,8C17.9,22.1,15,23.3,12,23.3z"/>
<path id="closeline2" class="st1" d="M17.8,6.2c0.1,0.1,0.1,0.2,0.2,0.2C18,6.6,18,6.7,18,6.8c0,0.1,0,0.2-0.1,0.3
	c0,0.1-0.1,0.2-0.2,0.2L7.3,17.8C7.1,17.9,6.9,18,6.8,18c-0.2,0-0.4-0.1-0.5-0.2C6.1,17.6,6,17.4,6,17.2c0-0.2,0.1-0.4,0.2-0.5
	L16.7,6.2c0.1-0.1,0.2-0.1,0.2-0.2C17.1,6,17.2,6,17.2,6s0.2,0,0.3,0.1C17.6,6.1,17.7,6.2,17.8,6.2z"/>
<path id="closeline1" class="st1" d="M6.2,6.2C6.2,6.3,6.1,6.4,6.1,6.5C6,6.6,6,6.7,6,6.8C6,6.8,6,6.9,6.1,7c0,0.1,0.1,0.2,0.2,0.2
	l10.5,10.5c0.1,0.1,0.3,0.2,0.5,0.2c0.2,0,0.4-0.1,0.5-0.2s0.2-0.3,0.2-0.5c0-0.2-0.1-0.4-0.2-0.5L7.3,6.2C7.2,6.2,7.1,6.1,7,6.1
	C6.9,6,6.8,6,6.8,6C6.7,6,6.6,6,6.5,6.1C6.4,6.1,6.3,6.2,6.2,6.2z"/>
</svg>
