<?xml version="1.0" encoding="utf-8"?>
<!-- Generator: Adobe Illustrator 22.1.0, SVG Export Plug-In . SVG Version: 6.00 Build 0)  -->
<svg version="1.1" id="logo" xmlns="http://www.w3.org/2000/svg" xmlns:xlink="http://www.w3.org/1999/xlink" x="0px" y="0px"
	 viewBox="0 0 96 39.7" style="enable-background:new 0 0 96 39.7;" xml:space="preserve">
<style type="text/css">
	.st0{fill:#263396;}
	.st1{fill:#FFFFFF;}
</style>
<g id="logoimage">
	<path class="st0" d="M51.8,39.4c-5.7,0-9.5-2.5-11.4-7.5l-0.1-0.3h3.9l0.1,0.1c1.5,2.8,3.9,4.1,7.4,4.1c1.7,0,3-0.3,4.2-1
		c1.4-0.8,2.2-1.5,2.6-2.5c0.5-1,0.7-2.6,0.7-4.5c-1,1-2,1.8-3.3,2.4c-1.7,0.7-3.1,1-4.6,1c-3.1,0-5.8-1.1-7.9-3.3
		c-2.1-2.2-3.1-4.9-3.1-8c0-3.3,1.1-6,3.3-8.2c2.3-2.3,5-3.4,7.9-3.4c2.9,0,5.5,1.2,7.6,3.5V8.7h3.9V26c0,2.9-0.3,5.2-0.8,6.6
		c-0.5,1.4-1.2,2.6-2.3,3.7c-0.9,1-2.1,1.7-3.6,2.3C55,39.2,53.4,39.4,51.8,39.4z M52,11.9c-2.3,0-4.1,0.8-5.6,2.4
		c-1.5,1.7-2.2,3.5-2.2,5.6c0,2.1,0.7,3.9,2.1,5.4c1.6,1.5,3.3,2.2,5.6,2.2c2.2,0,4.1-0.7,5.5-2.2c1.3-1.4,2-3.3,2-5.5
		c0-2.2-0.7-4.1-2.1-5.7C55.8,12.6,54,11.9,52,11.9z M81.7,32.2c-3.2,0-5.9-1.2-8-3.5c-2.1-2.3-3.2-5.2-3.2-8.5
		c0-3.4,1.1-6.2,3.3-8.5c2-2.3,4.6-3.5,7.8-3.5c3.1,0,5.7,1.2,8,3.5c2.2,2.4,3.3,5.3,3.3,8.5c0,3.3-1.1,6.2-3.2,8.5
		C87.6,31,84.8,32.2,81.7,32.2z M81.6,12c-2,0-3.8,0.8-5.3,2.5c-1.5,1.6-2.2,3.6-2.2,5.9c0,2.2,0.7,4.2,2.1,5.8
		c1.4,1.6,3.1,2.4,5.4,2.4c2.2,0,3.9-0.8,5.4-2.4c1.5-1.6,2.2-3.6,2.2-5.8c0-2.3-0.7-4.2-2.2-5.9C85.4,12.8,83.7,12,81.6,12z
		 M22.5,32.2c-3.1,0-5.9-1.2-8-3.5c-2.1-2.3-3.2-5.2-3.2-8.5c0-3.4,1.1-6.2,3.3-8.5c2.1-2.3,4.7-3.5,7.8-3.5c3.1,0,5.7,1.2,8,3.5
		c2.2,2.4,3.3,5.3,3.3,8.5c0,3.3-1.1,6.2-3.2,8.5C28.4,31,25.6,32.2,22.5,32.2z M22.4,12c-2.1,0-3.7,0.8-5.3,2.5
		c-1.5,1.6-2.2,3.6-2.2,5.9c0,2.2,0.7,4.2,2.1,5.8c1.5,1.6,3.2,2.4,5.4,2.4s3.9-0.8,5.4-2.4c1.5-1.6,2.2-3.6,2.2-5.8
		c0-2.3-0.7-4.2-2.2-5.9C26.2,12.8,24.5,12,22.4,12z M0.2,31.5V0.2h3.6v31.3H0.2z"/>
	<path class="st1" d="M3.6,0.5v30.8H0.5V0.5H3.6 M81.6,8.3c3.1,0,5.7,1.2,7.9,3.5c2.1,2.3,3.3,5.2,3.3,8.3c0,3.3-1.1,6.1-3.2,8.3
		c-2.1,2.3-4.8,3.5-7.9,3.5c-3.2,0-5.8-1.2-7.9-3.5s-3.2-5.1-3.2-8.3s1.1-6.1,3.3-8.3C75.8,9.5,78.4,8.3,81.6,8.3 M81.6,28.8
		c2.2,0,4-0.8,5.6-2.5c1.5-1.7,2.3-3.7,2.3-6c0-2.4-0.8-4.4-2.3-6.1c-1.5-1.7-3.4-2.6-5.6-2.6c-2.1,0-3.9,0.9-5.5,2.6
		c-1.5,1.7-2.3,3.8-2.3,6.1s0.8,4.4,2.2,6C77.5,28,79.3,28.8,81.6,28.8 M22.4,8.3c3.1,0,5.7,1.2,7.9,3.5c2.1,2.3,3.3,5.2,3.3,8.3
		c0,3.3-1.1,6.1-3.2,8.3s-4.8,3.5-7.9,3.5s-5.8-1.2-7.9-3.5s-3.2-5.1-3.2-8.3s1.1-6.1,3.3-8.3C16.7,9.5,19.3,8.3,22.4,8.3
		 M22.4,28.8c2.2,0,4-0.8,5.6-2.5c1.5-1.7,2.3-3.7,2.3-6c0-2.4-0.8-4.4-2.3-6.1c-1.5-1.7-3.4-2.6-5.6-2.6s-3.9,0.9-5.5,2.6
		s-2.3,3.8-2.3,6.1s0.8,4.4,2.2,6C18.3,28,20.2,28.8,22.4,28.8 M51.5,8.5c3,0,5.7,1.3,7.9,3.9V8.9h3.5V26c0,3-0.3,5.2-0.8,6.5
		c-0.5,1.4-1.2,2.6-2.2,3.6c-1,1-2.1,1.7-3.6,2.3c-1.3,0.5-2.9,0.8-4.5,0.8c-5.6,0-9.3-2.5-11.1-7.3h3.5c1.5,2.9,4,4.3,7.6,4.3
		c1.6,0,3.1-0.3,4.3-1c1.2-0.7,2.2-1.5,2.7-2.6s0.8-2.8,0.8-5.1v-0.2c-1.1,1.2-2.2,2.1-3.6,2.8c-1.4,0.6-2.9,1-4.5,1
		c-3.1,0-5.7-1.1-7.8-3.3c-2.1-2.2-3.1-4.9-3.1-7.8c0-3.2,1.1-5.9,3.3-8C46,9.7,48.6,8.5,51.5,8.5 M51.9,27.7c2.3,0,4.2-0.8,5.7-2.3
		c1.3-1.4,2.1-3.4,2.1-5.7c0-2.4-0.8-4.3-2.2-5.9c-1.5-1.5-3.4-2.3-5.5-2.3c-2.3,0-4.2,0.8-5.8,2.5c-1.5,1.7-2.3,3.6-2.3,5.8
		s0.8,4.1,2.2,5.6C47.7,26.9,49.5,27.7,51.9,27.7 M4.1,0H3.6H0.5H0v0.5v30.8v0.5h0.5h3.2h0.5v-0.5V0.5V0L4.1,0z M81.6,7.8
		c-3.3,0-6,1.2-8,3.6c-2.2,2.3-3.4,5.2-3.4,8.7c0,3.4,1.1,6.3,3.3,8.7c2.2,2.4,5,3.6,8.2,3.6c3.2,0,6-1.3,8.2-3.6
		c2.2-2.4,3.3-5.3,3.3-8.7c0-3.3-1.2-6.3-3.4-8.7C87.5,9.1,84.7,7.8,81.6,7.8L81.6,7.8z M81.6,28.3c-2.2,0-3.9-0.8-5.2-2.3
		c-1.4-1.5-2.1-3.5-2.1-5.6c0-2.2,0.8-4.2,2.2-5.7c1.5-1.6,3.2-2.4,5.1-2.4c2,0,3.7,0.8,5.2,2.4c1.5,1.6,2.2,3.5,2.2,5.7
		c0,2.1-0.7,4-2.2,5.6C85.4,27.5,83.7,28.3,81.6,28.3L81.6,28.3z M22.4,7.8c-3.2,0-5.9,1.2-8,3.6c-2.2,2.3-3.4,5.2-3.4,8.7
		c0,3.4,1.1,6.3,3.3,8.7c2.2,2.4,5,3.6,8.2,3.6s6-1.3,8.2-3.6c2.2-2.4,3.3-5.3,3.3-8.7c0-3.3-1.2-6.3-3.4-8.7
		C28.3,9.1,25.5,7.8,22.4,7.8L22.4,7.8z M22.4,28.3c-2.1,0-3.8-0.8-5.2-2.3c-1.4-1.5-2.1-3.4-2.1-5.6c0-2.2,0.8-4.2,2.2-5.7
		c1.5-1.7,3.1-2.4,5.1-2.4c2,0,3.7,0.8,5.2,2.4c1.5,1.6,2.2,3.5,2.2,5.7c0,2.1-0.7,4-2.2,5.6C26.2,27.5,24.4,28.3,22.4,28.3
		L22.4,28.3z M51.5,8c-3,0-5.7,1.2-8.1,3.5c-2.3,2.2-3.4,5.1-3.4,8.4c0,3.2,1.1,6,3.2,8.2c2.2,2.3,4.9,3.4,8.1,3.4
		c1.5,0,3-0.3,4.7-1c1.1-0.5,2.1-1.2,3-2c-0.1,1.6-0.3,2.9-0.7,3.8c-0.4,0.9-1.2,1.6-2.5,2.3c-1.1,0.6-2.5,0.9-4.1,0.9
		c-3.4,0-5.7-1.3-7.2-4l-0.1-0.3h-0.3h-3.5H40l0.3,0.7c1.9,5.1,5.8,7.7,11.6,7.7c1.6,0,3.2-0.3,4.7-0.8c1.6-0.7,2.8-1.4,3.7-2.4
		c1.1-1.1,1.8-2.4,2.3-3.8c0.5-1.5,0.8-3.8,0.8-6.7V8.9V8.4h-0.5h-3.5h-0.5v0.5v2.2C56.8,9.1,54.3,8,51.5,8L51.5,8z M51.9,27.2
		c-2.2,0-3.9-0.7-5.4-2.1c-1.4-1.4-2.1-3.2-2.1-5.2c0-2,0.7-3.8,2.2-5.4c1.4-1.6,3.2-2.3,5.4-2.3c1.9,0,3.7,0.7,5.1,2.1
		c1.4,1.5,2.1,3.3,2.1,5.5c0,2.1-0.7,4-2,5.3C55.9,26.5,54.1,27.2,51.9,27.2L51.9,27.2z"/>
</g>
</svg>
