<?xml version="1.0" encoding="utf-8"?>
<!-- Generator: Adobe Illustrator 22.1.0, SVG Export Plug-In . SVG Version: 6.00 Build 0)  -->
<svg class="card__socials-image" id="linkedin" xmlns="http://www.w3.org/2000/svg" xmlns:xlink="http://www.w3.org/1999/xlink" x="0px" y="0px"
	 viewBox="0 0 11 11" style="enable-background:new 0 0 11 11;" xml:space="preserve">
<style type="text/css">
	.card__socials-image{fill:#001832;}
</style>
<path id="linkedinsymbol" class="st0" d="M1.5,0C0.6,0,0,0.6,0,1.5C0,2.3,0.6,3,1.5,3h0C2.4,3,3,2.3,3,1.5C3,0.6,2.4,0,1.5,0z
	 M11,6.5V11H8.7V6.8c0-1.1-0.3-1.8-1.2-1.8c-0.6,0-1,0.5-1.2,1C6.3,6.2,6.3,6.4,6.3,6.6V11H4c0,0,0-7.1,0-7.8h2.3v1.1c0,0,0,0,0,0
	c0,0,0,0,0,0h0v0C6.6,3.8,7.1,3,8.4,3C9.9,3,11,4.1,11,6.5z M2,11H0V4h2V11z"/>
</svg>
