<svg version="1.1" id="logo" xmlns="http://www.w3.org/2000/svg" x="0px" y="0px"
	 viewBox="0 0 96 39" preserveAspectRatio="xMidYMid meet" xml:space="preserve">
<path id="logoimage" class="st0" d="M3.3,31H0V0h3.3V31z M22.8,7.9c3.2,0,5.9,1.2,8.2,3.5c2.2,2.3,3.4,5.2,3.4,8.4
	c0,3.3-1.1,6.1-3.3,8.4s-5,3.5-8.2,3.5s-6-1.2-8.2-3.5s-3.3-5.1-3.3-8.4c0-3.3,1.1-6.1,3.4-8.4C16.9,9.1,19.6,7.9,22.8,7.9z
	 M22.8,28.5c2.3,0,4.2-0.8,5.8-2.5c1.6-1.7,2.4-3.7,2.4-6c0-2.4-0.8-4.4-2.4-6.1c-1.6-1.7-3.5-2.6-5.8-2.6s-4.1,0.9-5.7,2.6
	c-1.6,1.7-2.4,3.8-2.4,6.1s0.8,4.4,2.3,6C18.6,27.7,20.5,28.5,22.8,28.5z M65,25.7c0,3-0.3,5.2-0.8,6.6c-0.5,1.4-1.3,2.6-2.3,3.6
	s-2.2,1.7-3.7,2.3c-1.4,0.5-3,0.8-4.7,0.8c-5.8,0-9.7-2.5-11.6-7.4h3.6c1.6,2.9,4.2,4.3,7.9,4.3c1.7,0,3.2-0.3,4.5-1
	c1.3-0.7,2.3-1.5,2.8-2.6c0.5-1.1,0.8-2.8,0.8-5.1v-0.2c-1.1,1.2-2.3,2.1-3.8,2.8c-1.5,0.6-3,1-4.7,1c-3.2,0-5.9-1.1-8.1-3.3
	c-2.2-2.2-3.2-4.9-3.2-7.9c0-3.2,1.1-5.9,3.4-8.1c2.3-2.2,5-3.4,8.1-3.4s5.9,1.3,8.2,3.9V8.5H65V25.7z M61.7,19.4
	c0-2.4-0.8-4.3-2.3-5.9c-1.6-1.5-3.5-2.3-5.7-2.3c-2.4,0-4.4,0.8-6,2.5s-2.4,3.6-2.4,5.8c0,2.2,0.8,4.1,2.3,5.6
	c1.6,1.5,3.5,2.3,6,2.3c2.4,0,4.4-0.8,5.9-2.3C60.9,23.7,61.7,21.7,61.7,19.4z M84.5,7.9c3.2,0,5.9,1.2,8.2,3.5
	c2.2,2.3,3.4,5.2,3.4,8.4c0,3.3-1.1,6.1-3.3,8.4s-5,3.5-8.2,3.5c-3.3,0-6-1.2-8.2-3.5c-2.2-2.3-3.3-5.1-3.3-8.4
	c0-3.3,1.1-6.1,3.4-8.4C78.5,9.1,81.2,7.9,84.5,7.9z M84.5,28.5c2.3,0,4.2-0.8,5.8-2.5c1.6-1.7,2.4-3.7,2.4-6c0-2.4-0.8-4.4-2.4-6.1
	c-1.6-1.7-3.5-2.6-5.8-2.6c-2.2,0-4.1,0.9-5.7,2.6c-1.6,1.7-2.4,3.8-2.4,6.1s0.8,4.4,2.3,6C80.2,27.7,82.1,28.5,84.5,28.5z"/>
</svg>
