<?xml version="1.0" standalone="no"?>
<!DOCTYPE svg PUBLIC "-//W3C//DTD SVG 20010904//EN"
 "http://www.w3.org/TR/2001/REC-SVG-20010904/DTD/svg10.dtd">
<svg version="1.0" xmlns="http://www.w3.org/2000/svg"
 width="1536.000000pt" height="1536.000000pt" viewBox="0 0 1536.000000 1536.000000"
 preserveAspectRatio="xMidYMid meet">
<metadata>
Created by potrace 1.11, written by Peter Selinger 2001-2013
</metadata>
<g transform="translate(0.000000,1536.000000) scale(0.100000,-0.100000)"
fill="#000000" stroke="none">
<path d="M10 8307 l0 -2543 335 0 c184 1 335 3 336 6 0 7 0 5040 0 5063 -1 16
-24 17 -336 17 l-335 0 0 -2543z"/>
<path d="M3545 9602 c-2 -2 -41 -5 -86 -7 -93 -3 -166 -12 -219 -25 -19 -5
-50 -12 -69 -15 -19 -3 -43 -11 -55 -17 -11 -6 -22 -10 -24 -9 -5 5 -67 -12
-79 -21 -7 -6 -13 -7 -13 -4 0 4 -10 0 -22 -8 -12 -9 -29 -16 -36 -16 -46 0
-337 -173 -420 -250 -18 -16 -35 -30 -37 -30 -5 0 -135 -131 -190 -192 -72
-78 -129 -149 -182 -227 -29 -42 -56 -81 -61 -86 -38 -46 -184 -383 -207 -480
-62 -253 -73 -356 -70 -615 1 -118 5 -226 8 -240 3 -14 8 -45 11 -70 5 -37 34
-178 50 -240 31 -118 146 -383 218 -500 55 -88 193 -263 274 -346 92 -94 244
-224 262 -224 6 0 12 -4 14 -8 5 -14 167 -108 249 -146 119 -55 321 -118 419
-132 93 -12 118 -15 160 -19 59 -5 285 -5 330 -1 65 7 135 16 155 20 424 85
790 302 1062 631 95 115 103 125 103 129 0 2 20 34 45 72 54 82 159 284 148
284 -4 0 -3 4 2 8 14 10 71 170 90 256 2 10 9 33 14 50 5 17 17 76 26 131 41
242 39 548 -5 770 -16 79 -18 89 -20 95 -1 3 -3 10 -4 15 -4 27 -19 81 -24 90
-4 6 -8 16 -9 23 -7 29 -7 30 -46 132 -50 133 -159 336 -236 440 -14 19 -29
39 -33 45 -70 99 -192 223 -328 334 -14 11 -30 24 -35 29 -6 5 -24 17 -40 28
-17 10 -32 21 -35 24 -6 6 -56 40 -85 56 -253 145 -472 225 -680 249 -127 15
-282 24 -290 17z m155 -726 c105 -7 288 -57 328 -89 6 -5 12 -6 12 -2 0 5 9 0
21 -11 12 -10 22 -17 24 -14 9 15 209 -135 299 -225 201 -200 336 -456 372
-705 22 -150 22 -385 0 -480 -28 -127 -37 -157 -82 -275 -4 -11 -8 -22 -9 -25
-10 -39 -121 -216 -182 -290 -82 -101 -236 -233 -331 -285 -20 -12 -48 -27
-62 -35 -14 -8 -27 -15 -30 -15 -3 -1 -21 -8 -40 -17 -43 -18 -126 -46 -160
-52 -14 -3 -36 -8 -50 -11 -140 -33 -398 -22 -538 23 -18 6 -35 11 -37 11 -3
1 -22 8 -43 17 -20 9 -41 17 -47 18 -44 9 -199 106 -274 172 -105 92 -242 255
-273 325 -7 16 -16 29 -20 29 -5 0 -8 4 -8 9 0 4 -14 39 -32 77 -17 38 -32 74
-34 79 -1 6 -11 40 -22 76 -11 36 -23 83 -27 105 -4 21 -9 50 -11 64 -42 244
-9 543 83 760 74 174 210 368 332 474 13 12 33 31 45 43 32 32 176 133 191
133 7 0 15 4 17 8 5 14 148 69 218 85 36 9 96 18 135 22 38 3 70 7 71 8 3 3
70 0 164 -7z"/>
<path d="M12975 9601 c-2 -2 -35 -5 -72 -7 -344 -15 -702 -162 -952 -389 -64
-58 -78 -72 -161 -165 -41 -46 -80 -88 -85 -94 -70 -75 -182 -240 -244 -359
-40 -77 -113 -236 -112 -244 0 -2 -1 -8 -3 -15 -3 -7 -12 -36 -20 -64 -19 -60
-20 -62 -46 -184 -21 -98 -25 -121 -37 -250 -14 -154 -3 -464 22 -570 3 -14 7
-38 9 -55 2 -16 11 -59 21 -95 9 -36 18 -69 19 -75 1 -5 4 -14 8 -20 3 -5 9
-26 13 -45 4 -19 10 -39 14 -45 3 -5 6 -12 7 -15 0 -3 4 -14 9 -25 4 -11 19
-47 32 -80 48 -117 177 -339 240 -412 10 -11 29 -35 43 -53 93 -122 361 -370
399 -370 5 0 11 -4 13 -8 2 -4 32 -26 68 -47 137 -83 324 -162 425 -181 16 -3
35 -10 42 -16 8 -6 16 -8 19 -5 3 3 20 1 37 -4 18 -5 50 -12 72 -14 22 -3 51
-8 65 -10 63 -14 337 -20 420 -10 19 2 51 6 71 8 29 4 107 17 129 22 3 1 19 4
35 8 17 4 40 9 52 11 49 10 214 71 298 112 96 45 247 134 272 159 8 8 24 20
35 26 56 30 250 213 323 304 22 27 45 55 50 61 6 6 16 20 22 30 7 11 30 44 51
74 33 46 64 99 113 190 29 53 77 160 72 160 -3 0 0 7 7 15 7 8 9 15 4 15 -5 0
-4 4 1 8 17 12 80 227 100 342 27 149 34 228 34 405 1 161 -5 237 -24 345 -3
14 -7 40 -10 58 -8 49 -31 138 -55 217 -12 39 -24 80 -27 93 -3 12 -9 25 -14
28 -5 3 -9 11 -9 18 0 8 -16 48 -35 90 -19 42 -35 80 -36 84 0 4 -6 14 -13 22
-7 8 -26 40 -42 70 -16 30 -31 57 -34 60 -3 3 -27 39 -55 80 -27 41 -52 77
-55 80 -3 3 -23 28 -44 55 -47 61 -182 195 -251 250 -28 22 -52 42 -55 45 -3
3 -22 16 -42 30 -21 14 -38 28 -38 33 0 4 -5 7 -11 7 -6 0 -29 13 -52 28 -23
16 -62 39 -87 53 -25 13 -52 28 -60 34 -8 6 -44 24 -80 39 -36 15 -74 32 -85
37 -54 25 -248 81 -320 93 -63 10 -122 18 -165 21 -25 2 -45 4 -45 5 0 3 -187
5 -190 1z m196 -725 c127 -12 293 -63 398 -123 102 -58 183 -121 290 -223 37
-37 131 -146 131 -154 0 -4 9 -16 19 -27 16 -18 115 -185 117 -199 0 -3 6 -18
13 -35 14 -33 52 -140 50 -140 0 0 4 -20 11 -45 40 -149 52 -401 26 -544 -3
-17 -8 -49 -12 -71 -7 -49 -65 -224 -94 -285 -44 -95 -131 -228 -187 -288 -14
-15 -37 -40 -52 -57 -150 -168 -389 -304 -601 -341 -136 -23 -281 -25 -425 -4
-49 7 -92 12 -94 11 -2 -2 -7 1 -10 6 -3 4 -27 14 -53 20 -112 30 -276 124
-377 218 -29 27 -82 84 -118 125 -78 91 -78 91 -92 117 -6 12 -17 27 -23 35
-43 44 -143 297 -167 418 -6 30 -13 69 -17 85 -12 62 -11 331 1 410 19 117 25
146 34 164 5 9 10 21 10 26 4 30 25 95 42 127 11 21 17 38 15 38 -5 0 93 183
103 190 3 3 22 28 41 55 41 59 77 100 145 166 47 45 59 56 116 103 63 53 256
160 305 169 10 2 32 9 48 16 16 6 38 13 50 16 11 2 21 4 21 5 0 3 36 7 120 15
44 4 81 8 82 9 3 3 62 -1 134 -8z"/>
<path d="M8068 9564 c-3 -3 -33 -7 -123 -19 -16 -2 -30 -4 -30 -5 0 -1 -8 -3
-19 -5 -10 -2 -41 -9 -70 -16 -28 -7 -54 -13 -58 -14 -3 0 -10 -3 -14 -7 -4
-5 -14 -8 -22 -8 -23 0 -246 -91 -254 -104 -4 -6 -8 -8 -8 -3 0 4 -18 -4 -40
-18 -22 -14 -42 -25 -45 -25 -19 0 -264 -173 -273 -192 -2 -5 -8 -8 -12 -8
-19 0 -219 -193 -285 -275 -22 -28 -42 -52 -45 -55 -23 -23 -170 -253 -170
-267 0 -2 -13 -33 -29 -67 -49 -107 -107 -283 -126 -386 -3 -18 -17 -106 -21
-135 -16 -118 -22 -342 -11 -465 8 -92 19 -174 23 -181 2 -4 6 -24 9 -45 3
-22 8 -46 11 -54 3 -8 8 -26 10 -40 21 -115 128 -372 205 -490 16 -25 32 -52
36 -60 6 -14 78 -113 98 -136 6 -7 30 -35 54 -63 37 -44 110 -116 208 -208 13
-13 28 -23 33 -23 6 0 15 -9 22 -20 7 -11 16 -20 21 -20 4 0 32 -18 61 -39
155 -115 452 -238 641 -266 11 -2 33 -6 48 -9 141 -26 502 -27 615 -1 54 12
69 16 97 20 43 8 189 52 270 83 39 14 72 27 75 28 20 4 80 36 85 44 3 5 15 10
25 10 10 0 20 3 22 8 2 4 23 18 48 31 50 27 269 187 286 210 11 14 39 7 29 -8
-2 -5 -7 -37 -10 -72 -6 -78 -14 -145 -19 -179 -3 -14 -7 -43 -11 -65 -3 -22
-10 -58 -16 -80 -6 -22 -13 -51 -16 -64 -7 -40 -51 -141 -83 -191 -106 -165
-387 -342 -630 -395 -148 -33 -209 -39 -380 -39 -151 0 -327 15 -351 30 -4 2
-24 6 -45 10 -103 16 -295 104 -406 185 -138 100 -315 311 -353 419 l-12 35
-254 2 c-140 2 -256 3 -259 4 -17 2 -185 -3 -189 -6 -2 -2 3 -19 12 -37 8 -18
29 -68 46 -111 101 -255 246 -487 408 -652 91 -94 196 -185 212 -185 5 0 11
-3 13 -7 19 -45 385 -224 525 -258 10 -3 45 -11 78 -19 56 -14 79 -19 138 -30
217 -43 522 -50 757 -19 30 4 57 8 60 8 8 2 103 18 120 20 8 1 22 5 30 8 8 4
26 8 40 11 40 7 84 18 95 25 6 3 15 6 22 7 30 5 119 39 183 70 39 19 75 34 80
34 6 0 10 5 10 10 0 6 7 10 16 10 15 0 207 117 254 154 73 60 270 268 270 286
0 6 4 10 8 10 5 0 19 19 33 41 13 23 32 53 41 68 9 14 39 71 66 126 46 92 57
118 61 137 1 4 11 29 22 55 27 62 63 210 84 346 3 17 8 43 10 57 3 14 7 52 10
85 3 33 8 71 10 85 15 99 19 438 20 1785 l0 1530 -358 0 -358 0 -1 -212 c0
-117 -2 -213 -4 -213 -2 0 -14 10 -26 23 -72 69 -256 207 -277 207 -6 0 -11 4
-11 8 0 5 -39 29 -87 55 -263 138 -495 195 -790 195 -89 0 -164 -2 -165 -4z
m440 -677 c5 -4 27 -9 48 -13 22 -3 64 -13 94 -22 30 -9 57 -17 60 -17 78 -22
267 -129 344 -195 71 -61 176 -174 176 -189 0 -5 4 -11 8 -13 13 -5 65 -87
104 -163 38 -73 92 -225 102 -285 3 -19 8 -46 11 -60 39 -187 15 -516 -50
-681 -8 -20 -11 -39 -8 -43 4 -3 2 -6 -4 -6 -6 0 -13 -12 -16 -27 -8 -36 -100
-196 -146 -252 -76 -94 -224 -231 -250 -231 -6 0 -11 -4 -11 -8 0 -14 -178
-99 -255 -123 -200 -61 -455 -74 -675 -34 -79 14 -120 27 -245 76 -16 7 -33
12 -37 11 -5 -1 -8 2 -8 8 0 5 -5 10 -12 10 -10 0 -156 86 -168 99 -3 3 -25
22 -50 42 -165 133 -329 384 -365 559 -2 8 -8 33 -13 55 -21 78 -24 112 -27
260 -2 100 1 178 11 233 15 85 69 259 85 276 5 6 9 18 9 27 0 10 3 19 8 21 4
2 17 24 30 50 24 49 106 168 158 228 47 56 206 210 216 210 5 0 18 8 29 19 27
25 181 104 245 125 48 16 64 20 123 32 14 3 28 7 32 10 5 3 34 7 66 10 31 2
59 6 60 8 7 6 310 -1 321 -7z"/>
</g>
</svg>
