<?xml version="1.0" encoding="utf-8"?>
<!-- Generator: Adobe Illustrator 22.1.0, SVG Export Plug-In . SVG Version: 6.00 Build 0)  -->
<svg version="1.1" id="twitter" xmlns="http://www.w3.org/2000/svg" xmlns:xlink="http://www.w3.org/1999/xlink" x="0px" y="0px"
	 viewBox="0 0 22 18" style="enable-background:new 0 0 22 18;" xml:space="preserve">
<style type="text/css">
	.st0{fill:#FFFFFF;}
</style>
<path id="twittersymbol" class="st0" d="M20.1,4.5C19.9,12.2,15,17.6,7.4,18c-3.1,0.2-5.3-0.8-7.4-2c2.2,0.3,5.2-0.5,6.7-1.9
	c-2.2-0.2-3.6-1.4-4.3-3.2c0.7,0.2,1.4,0,1.9,0C2.2,10.2,0.9,9,0.7,6.3c0.5,0.3,1.2,0.5,1.9,0.5C1,6,0,2.8,1.2,0.8
	c2.2,2.4,5,4.4,9.5,4.7C9.5,0.8,16-1.8,18.6,1.4c1.2-0.2,2.1-0.7,2.9-1c-0.3,1.2-1,1.9-1.9,2.5c0.9-0.2,1.7-0.3,2.4-0.7
	C21.8,3.1,21,3.8,20.1,4.5z"/>
</svg>
