<svg version="1.1" id="logo" xmlns="http://www.w3.org/2000/svg" x="0" y="0" viewBox="0 0 96 39" preserveAspectRatio="xMidYMid meet" xml:space="preserve"><path id="logoimage" class="st0" d="M3.3 31H0V0h3.3v31zM22.8 7.9c3.2 0 5.9 1.2 8.2 3.5 2.2 2.3 3.4 5.2 3.4 8.4 0 3.3-1.1 6.1-3.3 8.4s-5 3.5-8.2 3.5-6-1.2-8.2-3.5-3.3-5.1-3.3-8.4c0-3.3 1.1-6.1 3.4-8.4 2.1-2.3 4.8-3.5 8-3.5zm0 20.6c2.3 0 4.2-.8 5.8-2.5 1.6-1.7 2.4-3.7 2.4-6 0-2.4-.8-4.4-2.4-6.1-1.6-1.7-3.5-2.6-5.8-2.6s-4.1.9-5.7 2.6c-1.6 1.7-2.4 3.8-2.4 6.1s.8 4.4 2.3 6c1.6 1.7 3.5 2.5 5.8 2.5zM65 25.7c0 3-.3 5.2-.8 6.6-.5 1.4-1.3 2.6-2.3 3.6s-2.2 1.7-3.7 2.3c-1.4.5-3 .8-4.7.8-5.8 0-9.7-2.5-11.6-7.4h3.6c1.6 2.9 4.2 4.3 7.9 4.3 1.7 0 3.2-.3 4.5-1 1.3-.7 2.3-1.5 2.8-2.6s.8-2.8.8-5.1V27c-1.1 1.2-2.3 2.1-3.8 2.8-1.5.6-3 1-4.7 1-3.2 0-5.9-1.1-8.1-3.3-2.2-2.2-3.2-4.9-3.2-7.9 0-3.2 1.1-5.9 3.4-8.1 2.3-2.2 5-3.4 8.1-3.4s5.9 1.3 8.2 3.9V8.5H65v17.2zm-3.3-6.3c0-2.4-.8-4.3-2.3-5.9-1.6-1.5-3.5-2.3-5.7-2.3-2.4 0-4.4.8-6 2.5s-2.4 3.6-2.4 5.8c0 2.2.8 4.1 2.3 5.6 1.6 1.5 3.5 2.3 6 2.3 2.4 0 4.4-.8 5.9-2.3 1.4-1.4 2.2-3.4 2.2-5.7zM84.5 7.9c3.2 0 5.9 1.2 8.2 3.5 2.2 2.3 3.4 5.2 3.4 8.4 0 3.3-1.1 6.1-3.3 8.4s-5 3.5-8.2 3.5c-3.3 0-6-1.2-8.2-3.5-2.2-2.3-3.3-5.1-3.3-8.4 0-3.3 1.1-6.1 3.4-8.4 2-2.3 4.7-3.5 8-3.5zm0 20.6c2.3 0 4.2-.8 5.8-2.5 1.6-1.7 2.4-3.7 2.4-6 0-2.4-.8-4.4-2.4-6.1-1.6-1.7-3.5-2.6-5.8-2.6-2.2 0-4.1.9-5.7 2.6-1.6 1.7-2.4 3.8-2.4 6.1s.8 4.4 2.3 6c1.5 1.7 3.4 2.5 5.8 2.5z"/></svg>